<?xml version="1.0" standalone="no"?>
<!DOCTYPE svg PUBLIC "-//W3C//DTD SVG 20010904//EN"
 "http://www.w3.org/TR/2001/REC-SVG-20010904/DTD/svg10.dtd">
<svg version="1.0" xmlns="http://www.w3.org/2000/svg"
 width="1024.000000pt" height="1024.000000pt" viewBox="0 0 1024.000000 1024.000000"
 preserveAspectRatio="xMidYMid meet">
<metadata>
Created by potrace 1.16, written by Peter Selinger 2001-2019
</metadata>
<g transform="translate(0.000000,1024.000000) scale(0.100000,-0.100000)"
fill="#000000" stroke="none">
<path d="M5678 8124 c-18 -9 -32 -28 -39 -55 -24 -79 35 -416 105 -603 141
-374 420 -693 869 -995 42 -28 77 -55 77 -58 0 -4 -18 -43 -39 -88 -62 -125
-83 -218 -79 -355 l3 -115 -30 -15 c-23 -11 -67 -15 -190 -15 -195 0 -254 11
-518 101 -244 82 -398 120 -562 139 -464 54 -922 -49 -1281 -288 -302 -201
-541 -507 -643 -822 l-29 -90 -606 -3 -606 -2 0 -70 0 -70 610 0 610 0 0 -85
0 -85 -910 0 -910 0 0 -150 0 -150 643 0 643 0 24 -33 c25 -34 61 -78 160
-194 l61 -73 514 0 c300 0 515 -4 515 -9 0 -10 -66 -129 -82 -148 -8 -10 -269
-13 -1244 -13 l-1234 0 0 -155 0 -155 1155 0 c635 0 1156 -2 1157 -6 1 -3 -16
-41 -37 -85 l-39 -79 -553 0 -553 0 0 -75 0 -75 1785 -2 c1500 -3 1785 -1
1785 11 0 25 -64 133 -106 180 -24 26 -71 63 -106 82 l-63 34 -794 5 -794 5
60 75 c138 174 315 430 381 550 96 175 134 307 133 465 0 183 -54 309 -185
440 -98 97 -203 153 -352 188 l-98 23 55 18 c131 43 288 25 405 -45 72 -44
180 -151 223 -223 79 -132 117 -318 100 -492 -23 -234 -126 -463 -326 -721
-21 -27 -51 -66 -67 -87 -16 -20 -26 -39 -22 -43 10 -10 341 16 461 37 191 33
476 125 638 207 47 23 53 24 140 14 51 -6 153 -15 227 -21 372 -29 556 -52
600 -75 69 -35 89 -109 51 -184 -11 -20 -47 -67 -80 -104 -86 -95 -114 -154
-109 -230 4 -54 8 -63 42 -95 36 -33 41 -34 92 -29 132 14 283 134 354 281 61
128 118 385 105 474 -22 148 -140 244 -318 258 -65 6 -82 3 -182 -31 -60 -20
-135 -39 -165 -42 -52 -5 -57 -3 -94 29 l-39 34 136 66 c75 37 167 86 204 110
172 112 331 272 455 459 104 156 215 404 256 570 15 64 22 76 57 102 82 61
150 84 379 127 60 12 131 32 159 46 104 53 174 151 213 296 16 59 16 70 4 94
-17 30 -285 271 -391 351 -176 132 -329 195 -524 215 l-121 12 -23 55 c-92
217 -291 565 -439 771 -207 287 -497 603 -646 704 -48 32 -60 32 -91 1 -20
-19 -25 -34 -25 -75 0 -27 -3 -50 -6 -50 -3 0 -29 20 -57 45 -57 50 -158 105
-191 105 -12 -1 -33 -7 -48 -16z m561 -646 c153 -73 325 -270 539 -618 121
-197 194 -338 190 -369 -4 -33 -50 -61 -75 -45 -18 11 -66 79 -266 384 -176
269 -329 461 -506 635 -34 33 -61 62 -61 66 0 14 100 -15 179 -53z m1315
-1207 c42 -23 192 -205 172 -209 -8 -2 -41 2 -72 7 -32 6 -96 11 -142 11 -82
0 -85 1 -118 34 -38 38 -44 77 -19 126 9 17 17 30 18 30 1 0 20 7 42 14 43 16
74 12 119 -13z m-2299 -431 c190 -22 340 -64 502 -140 109 -52 254 -146 334
-217 l49 -45 0 -96 0 -96 -47 45 c-215 203 -476 334 -762 384 -128 23 -321 29
-441 16 -91 -11 -251 -41 -300 -56 -13 -4 -18 9 -27 62 -7 38 -9 71 -4 76 10
10 210 54 296 66 99 12 294 13 400 1z m1400 -628 c9 -30 23 -86 29 -125 l12
-72 55 -7 c61 -8 169 -45 169 -58 0 -13 -76 -39 -155 -53 l-69 -13 -17 -87
c-10 -48 -25 -110 -34 -138 l-18 -52 -14 34 c-22 50 -53 177 -53 214 0 31 -2
33 -47 39 -27 3 -81 16 -122 28 -64 19 -71 23 -56 34 23 17 128 51 183 59 39
6 42 9 42 37 0 62 56 237 70 221 4 -4 15 -32 25 -61z"/>
<path d="M5072 7819 c-120 -11 -284 -44 -424 -85 -573 -166 -1052 -533 -1385
-1059 -134 -212 -251 -496 -298 -721 -26 -124 -37 -114 125 -114 139 0 140 0
140 23 0 13 11 67 25 121 125 480 479 951 938 1251 343 223 826 353 1233 331
l121 -7 -24 113 c-13 62 -26 123 -29 136 -4 22 -6 22 -172 21 -92 -1 -204 -5
-250 -10z"/>
<path d="M4280 7042 c-39 -90 -116 -198 -178 -249 -31 -25 -94 -64 -139 -85
-46 -21 -83 -45 -83 -53 0 -7 33 -29 73 -49 145 -71 246 -174 314 -323 21 -46
44 -83 50 -83 7 0 36 46 64 103 69 137 163 233 292 295 109 54 112 67 19 105
-153 63 -286 209 -345 380 -13 35 -41 18 -67 -41z"/>
<path d="M1637 5653 c-9 -8 -9 -80 -1 -110 6 -21 13 -23 65 -23 l59 0 0 70 0
70 -58 0 c-32 0 -62 -3 -65 -7z"/>
<path d="M2240 5590 l0 -70 623 1 622 1 64 69 64 69 -686 0 -687 0 0 -70z"/>
<path d="M7809 5393 l-127 -25 5 -181 c6 -205 -7 -329 -57 -528 -56 -226 -138
-403 -273 -591 -46 -64 -48 -69 -38 -105 15 -53 13 -160 -4 -273 -8 -52 -13
-96 -11 -97 2 -2 48 43 102 100 252 264 444 638 518 1007 35 173 50 359 42
515 -7 142 -15 206 -25 204 -3 -1 -63 -12 -132 -26z"/>
<path d="M1510 5191 l0 -149 851 1 851 2 38 88 c21 48 54 114 74 147 l35 60
-924 0 -925 0 0 -149z"/>
<path d="M1630 4828 c0 -18 3 -49 6 -68 6 -35 6 -35 65 -38 l59 -3 0 70 0 71
-65 0 -65 0 0 -32z"/>
<path d="M2188 4072 l-58 -3 0 -59 0 -60 140 0 140 0 0 59 0 60 -82 3 c-46 2
-109 2 -140 0z"/>
<path d="M2718 2973 l-408 -3 0 -155 0 -155 2575 0 2575 0 0 153 0 154 -487 6
c-478 5 -3451 5 -4255 0z"/>
<path d="M1510 2815 l0 -155 210 0 210 0 0 155 0 155 -210 0 -210 0 0 -155z"/>
</g>
</svg>
